<svg width="1500" height="1500" viewBox="0 0 1500 1500" fill="none" xmlns="http://www.w3.org/2000/svg">
<g clip-path="url(#clip0_168_12)">
<path id="star-shape" fill-rule="evenodd" clip-rule="evenodd" d="M1500 0H0V1500H1500V0ZM750 1237.5C745.568 1237.5 742.614 1234.55 742.614 1230.11C742.614 968.636 531.364 757.386 269.886 757.386C265.455 757.386 262.5 754.432 262.5 750C262.5 745.568 265.455 742.614 269.886 742.614C529.886 742.614 742.614 531.364 742.614 269.886C742.614 265.455 745.568 262.5 750 262.5C754.432 262.5 757.386 265.455 757.386 269.886C757.386 529.886 968.636 742.614 1230.11 742.614C1234.55 742.614 1237.5 745.568 1237.5 750C1237.5 754.432 1234.55 757.386 1230.11 757.386C970.114 757.386 757.386 968.636 757.386 1230.11C757.386 1234.55 754.432 1237.5 750 1237.5Z" fill="black"/>
</g>
<defs>
<clipPath id="clip0_168_12">
<rect width="1500" height="1500" fill="white"/>
</clipPath>
</defs>
</svg>
